<svg width="20" height="20" viewBox="0 0 20 20" fill="none" xmlns="http://www.w3.org/2000/svg">
<path d="M11.3937 10.003L5.98103 4.76537C5.83199 4.6215 5.75 4.42914 5.75 4.22403C5.75 4.01881 5.83199 3.82657 5.98102 3.68247L6.45531 3.22377C6.60411 3.07945 6.80303 3 7.015 3C7.22697 3 7.42565 3.07945 7.57457 3.22377L14.0192 9.45958C14.1687 9.60413 14.2506 9.79728 14.25 10.0026C14.2506 10.2089 14.1688 10.4018 14.0192 10.5465L7.58057 16.7762C7.43165 16.9206 7.23297 17 7.02088 17C6.80891 17 6.61023 16.9206 6.4612 16.7762L5.98703 16.3175C5.67848 16.019 5.67848 15.533 5.98703 15.2345L11.3937 10.003Z" fill="white"/>
</svg>
