<svg width="16" height="17" viewBox="0 0 16 17" fill="none" xmlns="http://www.w3.org/2000/svg">
<path d="M6.88515 8.49761L11.2153 12.6877C11.3345 12.8028 11.4001 12.9567 11.4001 13.1207C11.4001 13.2849 11.3345 13.4387 11.2153 13.554L10.8358 13.921C10.7168 14.0364 10.5577 14.1 10.3881 14.1C10.2185 14.1 10.0596 14.0364 9.94044 13.921L4.78473 8.93231C4.66513 8.81667 4.59963 8.66215 4.6001 8.49788C4.59963 8.33289 4.66503 8.17855 4.78473 8.06281L9.93564 3.07899C10.0548 2.96353 10.2137 2.89998 10.3834 2.89998C10.553 2.89998 10.7119 2.96353 10.8311 3.07899L11.2105 3.44595C11.4573 3.6848 11.4573 4.07361 11.2105 4.31236L6.88515 8.49761Z" fill="#195EE6"/>
</svg>
