<svg width="14" height="10" viewBox="0 0 14 10" fill="none" xmlns="http://www.w3.org/2000/svg">
<path d="M6.99704 6.39369L12.2346 0.981024C12.3785 0.831986 12.5709 0.749997 12.776 0.749997C12.9812 0.749997 13.1734 0.831986 13.3175 0.981024L13.7762 1.45531C13.9206 1.60411 14 1.80303 14 2.015C14 2.22697 13.9206 2.42565 13.7762 2.57457L7.54042 9.01921C7.39587 9.16871 7.20272 9.25058 6.99738 9.25C6.79114 9.25058 6.59821 9.16883 6.45355 9.01921L0.223775 2.58057C0.0794494 2.43165 1.6334e-06 2.23297 1.63593e-06 2.02088C1.63846e-06 1.80891 0.0794494 1.61023 0.223775 1.46119L0.682474 0.987023C0.981027 0.678477 1.46704 0.678477 1.76548 0.987023L6.99704 6.39369Z" fill="#A7ADBE"/>
</svg>
