<svg width="32" height="32" viewBox="0 0 32 32" fill="none" xmlns="http://www.w3.org/2000/svg">
<path fill-rule="evenodd" clip-rule="evenodd" d="M1.66711 12.0001C1.66711 9.23866 3.90568 7.00008 6.66711 7.00008H25.3338C28.0952 7.00008 30.3338 9.23866 30.3338 12.0001V25.3334C30.3338 28.0948 28.0952 30.3334 25.3338 30.3334H6.6671C3.90568 30.3334 1.66711 28.0948 1.66711 25.3334V12.0001ZM6.66711 9.00008C5.01025 9.00008 3.6671 10.3432 3.6671 12.0001V25.3334C3.6671 26.9903 5.01025 28.3334 6.6671 28.3334H25.3338C26.9906 28.3334 28.3338 26.9903 28.3338 25.3334V12.0001C28.3338 10.3432 26.9906 9.00008 25.3338 9.00008H6.66711Z" fill="#195EE6"/>
<path fill-rule="evenodd" clip-rule="evenodd" d="M13.6671 3.66675C12.5625 3.66675 11.6671 4.56218 11.6671 5.66675V8.00008C11.6671 8.55237 11.2194 9.00008 10.6671 9.00008C10.1148 9.00008 9.66711 8.55237 9.66711 8.00008V5.66675C9.66711 3.45761 11.458 1.66675 13.6671 1.66675H18.3338C20.5429 1.66675 22.3338 3.45761 22.3338 5.66675V8.00008C22.3338 8.55237 21.8861 9.00008 21.3338 9.00008C20.7815 9.00008 20.3338 8.55237 20.3338 8.00008V5.66675C20.3338 4.56218 19.4383 3.66675 18.3338 3.66675H13.6671Z" fill="#195EE6"/>
<path fill-rule="evenodd" clip-rule="evenodd" d="M1.83108 14.1181C2.13408 13.6564 2.75395 13.5277 3.21566 13.8306L3.21976 13.8333L3.23532 13.8434L3.30023 13.8854C3.35818 13.9226 3.44501 13.978 3.55802 14.0489C3.7841 14.1908 4.11467 14.3947 4.52825 14.6399C5.35631 15.131 6.51262 15.785 7.82625 16.4379C10.5057 17.7698 13.6528 19.0001 16.0004 19.0001C18.3481 19.0001 21.4952 17.7698 24.1746 16.4379C25.4883 15.785 26.6446 15.131 27.4726 14.6399C27.8862 14.3947 28.2168 14.1908 28.4429 14.0489C28.5559 13.978 28.6427 13.9226 28.7006 13.8854L28.7656 13.8434L28.7811 13.8333L28.7846 13.8311C29.2463 13.5282 29.8668 13.6564 30.1698 14.1181C30.4728 14.5798 30.3442 15.1997 29.8825 15.5028L29.3338 14.6667C29.8825 15.5028 29.8825 15.5028 29.8825 15.5028L29.8746 15.5079L29.855 15.5206L29.7818 15.5679C29.7182 15.6088 29.6254 15.668 29.506 15.7429C29.2673 15.8927 28.9223 16.1055 28.4927 16.3602C27.6344 16.8692 26.4337 17.5485 25.0648 18.2289C22.3793 19.5637 18.8598 21.0001 16.0004 21.0001C13.1411 21.0001 9.62155 19.5637 6.93605 18.2289C5.56722 17.5485 4.36651 16.8692 3.50816 16.3602C3.07854 16.1055 2.73355 15.8927 2.49489 15.7429C2.37552 15.668 2.28268 15.6088 2.21905 15.5679L2.14583 15.5206L2.12627 15.5079L2.11927 15.5033C2.11927 15.5033 2.11842 15.5028 2.66711 14.6667L2.11842 15.5028C1.65669 15.1997 1.52805 14.5798 1.83108 14.1181Z" fill="#195EE6"/>
<path d="M18.6671 20.0001C18.6671 21.4728 17.4732 22.6667 16.0004 22.6667C14.5277 22.6667 13.3338 21.4728 13.3338 20.0001C13.3338 18.5273 14.5277 17.3334 16.0004 17.3334C17.4732 17.3334 18.6671 18.5273 18.6671 20.0001Z" fill="#195EE6"/>
</svg>
