<svg width="32" height="32" viewBox="0 0 32 32" fill="none" xmlns="http://www.w3.org/2000/svg">
<path d="M5.33317 3.66675H10.6665V1.66675H5.33317V3.66675ZM12.3332 5.33341V8.00008H14.3332V5.33341H12.3332ZM10.6665 9.66675H5.33317V11.6667H10.6665V9.66675ZM3.6665 8.00008V5.33341H1.6665V8.00008H3.6665ZM5.33317 9.66675C4.4127 9.66675 3.6665 8.92056 3.6665 8.00008H1.6665C1.6665 10.0251 3.30813 11.6667 5.33317 11.6667V9.66675ZM12.3332 8.00008C12.3332 8.92056 11.587 9.66675 10.6665 9.66675V11.6667C12.6915 11.6667 14.3332 10.0251 14.3332 8.00008H12.3332ZM10.6665 3.66675C11.587 3.66675 12.3332 4.41294 12.3332 5.33341H14.3332C14.3332 3.30837 12.6915 1.66675 10.6665 1.66675V3.66675ZM5.33317 1.66675C3.30813 1.66675 1.6665 3.30837 1.6665 5.33341H3.6665C3.6665 4.41294 4.4127 3.66675 5.33317 3.66675V1.66675ZM5.33317 17.0001H10.6665V15.0001H5.33317V17.0001ZM12.3332 18.6667V26.6667H14.3332V18.6667H12.3332ZM10.6665 28.3334H5.33317V30.3334H10.6665V28.3334ZM3.6665 26.6667V18.6667H1.6665V26.6667H3.6665ZM5.33317 28.3334C4.4127 28.3334 3.6665 27.5872 3.6665 26.6667H1.6665C1.6665 28.6918 3.30813 30.3334 5.33317 30.3334V28.3334ZM12.3332 26.6667C12.3332 27.5872 11.587 28.3334 10.6665 28.3334V30.3334C12.6915 30.3334 14.3332 28.6918 14.3332 26.6667H12.3332ZM10.6665 17.0001C11.587 17.0001 12.3332 17.7463 12.3332 18.6667H14.3332C14.3332 16.6417 12.6915 15.0001 10.6665 15.0001V17.0001ZM5.33317 15.0001C3.30813 15.0001 1.6665 16.6417 1.6665 18.6667H3.6665C3.6665 17.7463 4.4127 17.0001 5.33317 17.0001V15.0001ZM21.3332 3.66675H26.6665V1.66675H21.3332V3.66675ZM28.3332 5.33341V13.3334H30.3332V5.33341H28.3332ZM26.6665 15.0001H21.3332V17.0001H26.6665V15.0001ZM19.6665 13.3334V5.33341H17.6665V13.3334H19.6665ZM21.3332 15.0001C20.4127 15.0001 19.6665 14.2539 19.6665 13.3334H17.6665C17.6665 15.3585 19.3081 17.0001 21.3332 17.0001V15.0001ZM28.3332 13.3334C28.3332 14.2539 27.587 15.0001 26.6665 15.0001V17.0001C28.6915 17.0001 30.3332 15.3585 30.3332 13.3334H28.3332ZM26.6665 3.66675C27.587 3.66675 28.3332 4.41294 28.3332 5.33341H30.3332C30.3332 3.30837 28.6915 1.66675 26.6665 1.66675V3.66675ZM21.3332 1.66675C19.3081 1.66675 17.6665 3.30837 17.6665 5.33341H19.6665C19.6665 4.41294 20.4127 3.66675 21.3332 3.66675V1.66675ZM21.3332 22.3334H26.6665V20.3334H21.3332V22.3334ZM28.3332 24.0001V26.6667H30.3332V24.0001H28.3332ZM26.6665 28.3334H21.3332V30.3334H26.6665V28.3334ZM19.6665 26.6667V24.0001H17.6665V26.6667H19.6665ZM21.3332 28.3334C20.4127 28.3334 19.6665 27.5872 19.6665 26.6667H17.6665C17.6665 28.6918 19.3081 30.3334 21.3332 30.3334V28.3334ZM28.3332 26.6667C28.3332 27.5872 27.587 28.3334 26.6665 28.3334V30.3334C28.6915 30.3334 30.3332 28.6918 30.3332 26.6667H28.3332ZM26.6665 22.3334C27.587 22.3334 28.3332 23.0796 28.3332 24.0001H30.3332C30.3332 21.975 28.6915 20.3334 26.6665 20.3334V22.3334ZM21.3332 20.3334C19.3081 20.3334 17.6665 21.975 17.6665 24.0001H19.6665C19.6665 23.0796 20.4127 22.3334 21.3332 22.3334V20.3334Z" fill="#195EE6"/>
</svg>
