<svg width="24" height="24" viewBox="0 0 24 24" fill="none" xmlns="http://www.w3.org/2000/svg">
<path d="M1.82397 18.2379C1.82397 18.2331 1.82397 18.2284 1.82397 18.2236C1.82898 18.2009 1.8382 18.1782 1.83834 18.1554C1.84095 17.7353 1.892 17.3202 1.95548 16.9056C2.04884 16.2961 2.18929 15.6981 2.38202 15.1128C2.59015 14.4807 2.80369 13.8504 3.01654 13.2199C3.23362 12.577 3.25985 11.9227 3.14546 11.2576C3.099 10.9875 3.06032 10.7156 3.02908 10.4433C2.9884 10.0886 2.95285 9.73309 2.92582 9.37711C2.90018 9.03953 2.87685 8.70103 2.87348 8.36273C2.86948 7.96248 2.88285 7.56179 2.89851 7.16168C2.90906 6.89235 2.92445 6.6221 2.95935 6.35509C3.01445 5.93348 3.07603 5.51201 3.15558 5.09442C3.37708 3.93167 3.75738 2.81984 4.28855 1.76294C4.52554 1.29139 4.79704 0.83675 5.06253 0.38002C5.20761 0.130423 5.44339 0.00825026 5.72847 0.0139446C6.00627 0.0194824 6.22223 0.15152 6.38099 0.385529C6.71391 0.876197 7.0516 1.36371 7.39187 1.84932C7.97463 2.68101 8.54304 3.52165 9.03227 4.41297C9.07532 4.49141 9.11853 4.5698 9.16324 4.65107C9.19964 4.63769 9.22854 4.62792 9.2568 4.61655C10.0929 4.28011 10.9615 4.09072 11.8619 4.0543C12.2891 4.03703 12.7154 4.06409 13.1384 4.12616C13.7103 4.2101 14.2646 4.36168 14.8006 4.57783C14.853 4.59895 14.8767 4.58943 14.906 4.53966C15.1922 4.05352 15.4621 3.55637 15.7743 3.08736C16.3867 2.16743 17.0232 1.26358 17.6495 0.352901C17.9777 -0.124442 18.6458 -0.116826 18.9561 0.371436C19.4246 1.10868 19.857 1.86563 20.1999 2.67093C20.5288 3.44321 20.7636 4.2433 20.9113 5.06885C21.0034 5.58367 21.0698 6.1021 21.0989 6.6245C21.1211 7.02409 21.14 7.42395 21.1524 7.82393C21.1585 8.02269 21.1502 8.22217 21.1422 8.42106C21.1309 8.70254 21.12 8.98428 21.0976 9.26503C21.07 9.61147 21.0355 9.95756 20.9954 10.3028C20.943 10.7536 20.8771 11.2028 20.8265 11.6537C20.7896 11.9823 20.7946 12.3139 20.8664 12.6366C20.9361 12.9501 21.0233 13.2609 21.123 13.5663C21.2796 14.0455 21.4658 14.5153 21.6168 14.9961C21.8998 15.8969 22.0968 16.8175 22.1614 17.761C22.1856 18.1146 22.1742 18.4713 22.1657 18.8263C22.1545 19.2898 21.9575 19.6755 21.6367 20.0028C21.3843 20.2603 21.0884 20.4592 20.7627 20.6068C20.0868 20.913 19.4103 21.2193 18.7244 21.502C17.361 22.0641 15.9933 22.6157 14.623 23.1609C13.8676 23.4614 13.0957 23.7173 12.3167 23.9512C12.0947 24.0178 11.873 24.0158 11.6518 23.9478C11.4321 23.8804 11.212 23.8143 10.9931 23.7444C9.83625 23.3749 8.70064 22.9471 7.58074 22.4792C6.29675 21.9427 5.01824 21.3932 3.73936 20.8446C3.39517 20.697 3.05508 20.5393 2.74352 20.3267C2.35429 20.061 2.0839 19.7118 1.95965 19.2536C1.87666 18.9476 1.84093 18.6362 1.83843 18.32C1.83823 18.2925 1.82901 18.2652 1.82397 18.2379ZM19.3534 12.8383C19.3242 12.8652 19.2994 12.8861 19.2768 12.9091C18.8195 13.3738 18.3237 13.7931 17.7871 14.1638C16.7335 14.892 15.5801 15.4075 14.3539 15.7671C14.1536 15.8259 13.9549 15.8785 13.7399 15.8427C13.3321 15.7749 13.0023 15.4 13.0014 14.9882C13.0006 14.6007 13.2472 14.2691 13.6262 14.1461C13.8923 14.0597 14.158 13.9725 14.4235 13.8845C14.9551 13.7083 15.4767 13.5074 15.9817 13.2644C16.7601 12.8898 17.495 12.4419 18.1973 11.9416C18.5332 11.7023 18.8523 11.4395 19.18 11.1888C19.2241 11.155 19.2285 11.123 19.2048 11.0741C19.0468 10.7479 18.901 10.4154 18.7328 10.0945C18.2206 9.11706 17.5783 8.23425 16.7874 7.46102C16.1592 6.84694 15.4568 6.34065 14.6565 5.97318C13.8625 5.6086 13.0289 5.41011 12.1557 5.38232C11.8116 5.37138 11.4693 5.39901 11.1281 5.44742C10.4791 5.53953 9.86434 5.73912 9.27748 6.02702C8.32776 6.49295 7.52751 7.15123 6.83367 7.94216C6.02912 8.85928 5.40912 9.89255 4.92328 11.0084C4.84101 11.1974 4.84149 11.1992 5.00014 11.327C5.49578 11.7266 6.01578 12.092 6.55268 12.434C7.22622 12.8629 7.92036 13.2555 8.66621 13.5434C9.24069 13.7651 9.8269 13.9568 10.4099 14.1561C10.8118 14.2936 11.0901 14.6731 11.0162 15.117C10.9267 15.6549 10.4034 15.9697 9.87416 15.8313C9.16268 15.6451 8.47998 15.3822 7.81473 15.0732C6.64222 14.5286 5.60382 13.7935 4.7034 12.8654C4.68798 12.8495 4.67041 12.8356 4.64706 12.8148C4.63766 12.8439 4.63029 12.861 4.62659 12.879C4.58973 13.0572 4.56756 13.2399 4.51437 13.4131C4.36637 13.8949 4.21017 14.3744 4.04878 14.852C3.7644 15.6936 3.49893 16.5388 3.4102 17.4291C3.36746 17.858 3.32163 18.2861 3.34348 18.7179C3.34961 18.8389 3.39568 18.9452 3.48444 19.0273C3.54851 19.0865 3.61541 19.1482 3.69203 19.1874C4.08032 19.3859 4.46495 19.594 4.86447 19.7675C5.53403 20.0582 6.21287 20.3278 6.88963 20.6018C7.93983 21.0269 8.99145 21.4485 10.0427 21.8709C10.2678 21.9614 10.4956 22.0396 10.745 22.0165C10.9059 22.0016 11.0281 21.9273 11.1083 21.7878C11.154 21.7083 11.1452 21.6477 11.0836 21.5802C11.0404 21.533 10.9969 21.4859 10.9515 21.4406C10.5587 21.0486 10.4905 20.4338 10.7268 19.9507C10.997 19.3985 11.6076 19.0786 12.2345 19.1716C12.9852 19.2829 13.5086 19.9273 13.4477 20.646C13.4189 20.9857 13.2915 21.2776 13.0316 21.5059C13.0031 21.5309 12.9755 21.5573 12.9504 21.5857C12.874 21.6722 12.8693 21.7504 12.9402 21.842C13.0228 21.9486 13.1332 22.0099 13.2689 22.0157C13.4759 22.0245 13.6753 21.9752 13.8671 21.9077C14.2136 21.7859 14.5573 21.6553 14.8986 21.5194C16.5707 20.8537 18.2287 20.1541 19.8724 19.421C20.0935 19.3224 20.3178 19.2267 20.4969 19.0586C20.5512 19.0076 20.6018 18.9365 20.6196 18.866C20.6534 18.7317 20.6729 18.5917 20.6796 18.4532C20.6983 18.0616 20.6598 17.6723 20.6065 17.285C20.5026 16.5299 20.308 15.7972 20.0546 15.0787C19.8712 14.5585 19.6951 14.0355 19.5255 13.5107C19.456 13.2953 19.4123 13.0717 19.3534 12.8383ZM5.76235 2.1882C5.70969 2.28904 5.66581 2.37259 5.62236 2.45635C5.31331 3.05227 5.03413 3.66085 4.83536 4.30367C4.68199 4.79968 4.57002 5.30472 4.51094 5.82052C4.47732 6.11402 4.44977 6.40836 4.42673 6.70289C4.41029 6.91284 4.40781 7.12383 4.39577 7.33418C4.36509 7.8699 4.3894 8.40493 4.41363 8.93997C4.41428 8.95439 4.42292 8.96844 4.43203 8.99482C4.45234 8.96569 4.4667 8.94774 4.47824 8.92814C4.82342 8.34256 5.21723 7.79169 5.65709 7.27332C6.27012 6.55086 6.95909 5.91389 7.75918 5.40116C7.8397 5.34957 7.84217 5.34736 7.79169 5.26387C7.56361 4.88662 7.3456 4.5026 7.10187 4.13566C6.74116 3.59257 6.36155 3.06205 5.99051 2.52582C5.91667 2.41911 5.84512 2.31082 5.76235 2.1882ZM19.6024 8.90898C19.7686 6.54507 19.3545 4.30413 18.2544 2.18755C18.229 2.22209 18.2133 2.24234 18.1987 2.26336C17.8484 2.76768 17.4973 3.27144 17.1482 3.77663C16.8233 4.24686 16.5138 4.72673 16.2394 5.22869C16.2114 5.27991 16.2118 5.3063 16.2658 5.3411C16.9233 5.76488 17.512 6.27088 18.0467 6.84049C18.6237 7.45505 19.1231 8.12798 19.5603 8.8477C19.5732 8.86885 19.5884 8.88858 19.6024 8.90898Z" fill="#262D40"/>
</svg>
