<svg width="32" height="32" viewBox="0 0 32 32" fill="none" xmlns="http://www.w3.org/2000/svg">
<path fill-rule="evenodd" clip-rule="evenodd" d="M7.01758 13.1197C7.97038 10.2613 10.6453 8.33328 13.6584 8.33328H18.3426C21.3556 8.33328 24.0306 10.2613 24.9834 13.1197L27.65 21.1197C29.1609 25.6524 25.7872 30.3333 21.0093 30.3333H10.9917C6.21378 30.3333 2.84001 25.6524 4.35091 21.1197L7.01758 13.1197ZM13.6584 10.3333C11.5062 10.3333 9.59551 11.7104 8.91494 13.7521L6.24828 21.7521C5.16906 24.9898 7.5789 28.3333 10.9917 28.3333H21.0093C24.422 28.3333 26.8319 24.9898 25.7527 21.7521L23.086 13.7521C22.4054 11.7104 20.4947 10.3333 18.3426 10.3333H13.6584Z" fill="#195EE6"/>
<path fill-rule="evenodd" clip-rule="evenodd" d="M14.0229 3.76494C12.2445 3.19126 10.9874 5.25177 12.1049 6.53356L13.6741 8.33344L18.3268 8.33344L19.896 6.53357C21.0135 5.25178 19.7564 3.19126 17.9781 3.76494L16.741 4.164C16.2598 4.31925 15.7412 4.31925 15.2599 4.164L14.0229 3.76494ZM10.5974 7.84787C8.05244 4.92878 11.068 0.710229 14.6369 1.86153L15.8739 2.26059C15.956 2.28705 16.045 2.28705 16.127 2.26059L17.364 1.86153C20.9329 0.71023 23.9485 4.92878 21.4035 7.84787L19.5354 9.9906C19.3455 10.2084 19.0706 10.3334 18.7817 10.3334L13.2193 10.3334C12.9303 10.3334 12.6554 10.2084 12.4655 9.9906L10.5974 7.84787Z" fill="#195EE6"/>
<path fill-rule="evenodd" clip-rule="evenodd" d="M20.8745 22.1814C21.1425 22.6643 20.9683 23.273 20.4855 23.541C18.8147 24.4684 17.3862 25.0023 15.9122 24.9963C14.4332 24.9903 13.0584 24.4415 11.4964 23.5305C11.0193 23.2523 10.8581 22.64 11.1363 22.1629C11.4145 21.6858 12.0268 21.5246 12.5039 21.8029C13.9477 22.6449 14.9582 22.9924 15.9203 22.9963C16.8875 23.0002 17.956 22.6576 19.5148 21.7924C19.9977 21.5243 20.6065 21.6985 20.8745 22.1814Z" fill="#195EE6"/>
</svg>
