<svg width="32" height="32" viewBox="0 0 32 32" fill="none" xmlns="http://www.w3.org/2000/svg">
<path d="M12.6045 5.68036L13.0515 4.78582V4.78582L12.6045 5.68036ZM27.5787 13.1629L27.1317 14.0575L27.5787 13.1629ZM27.5787 18.8369L28.0257 19.7315L27.5787 18.8369ZM12.6045 26.3195L12.1575 25.4249H12.1575L12.6045 26.3195ZM8.28492 22.1943L7.3712 21.7879L8.28492 22.1943ZM10.4667 17.2881L11.3805 17.6945L10.4667 17.2881ZM10.4667 14.7117L11.3805 14.3054H11.3805L10.4667 14.7117ZM8.28492 9.80558L9.19865 9.39924L8.28492 9.80558ZM11.3332 14.9999C10.7809 14.9999 10.3332 15.4476 10.3332 15.9999C10.3332 16.5522 10.7809 16.9999 11.3332 16.9999V14.9999ZM15.9998 16.9999C16.5521 16.9999 16.9998 16.5522 16.9998 15.9999C16.9998 15.4476 16.5521 14.9999 15.9998 14.9999V16.9999ZM2.6665 12.3332C2.11422 12.3332 1.6665 12.781 1.6665 13.3332C1.6665 13.8855 2.11422 14.3332 2.6665 14.3332V12.3332ZM5.33317 14.3332C5.88546 14.3332 6.33317 13.8855 6.33317 13.3332C6.33317 12.781 5.88546 12.3332 5.33317 12.3332V14.3332ZM2.6665 17.6666C2.11422 17.6666 1.6665 18.1143 1.6665 18.6666C1.6665 19.2189 2.11422 19.6666 2.6665 19.6666V17.6666ZM5.33317 19.6666C5.88546 19.6666 6.33317 19.2189 6.33317 18.6666C6.33317 18.1143 5.88546 17.6666 5.33317 17.6666V19.6666ZM12.1575 6.57489L27.1317 14.0575L28.0257 12.2684L13.0515 4.78582L12.1575 6.57489ZM27.1317 17.9424L12.1575 25.4249L13.0515 27.214L28.0257 19.7315L27.1317 17.9424ZM9.19864 22.6006L11.3805 17.6945L9.55303 16.8818L7.3712 21.7879L9.19864 22.6006ZM11.3805 14.3054L9.19865 9.39924L7.3712 10.2119L9.55303 15.118L11.3805 14.3054ZM11.3805 17.6945C11.8602 16.6157 11.8602 15.3842 11.3805 14.3054L9.55303 15.118C9.80271 15.6795 9.80271 16.3203 9.55303 16.8818L11.3805 17.6945ZM12.1575 25.4249C10.3316 26.3374 8.3714 24.4608 9.19864 22.6006L7.3712 21.7879C5.77979 25.3664 9.55091 28.9633 13.0515 27.214L12.1575 25.4249ZM27.1317 14.0575C28.7336 14.8579 28.7336 17.1419 27.1317 17.9424L28.0257 19.7315C31.1023 18.1941 31.1023 13.8057 28.0257 12.2684L27.1317 14.0575ZM13.0515 4.78582C9.55092 3.03658 5.77979 6.63342 7.3712 10.2119L9.19865 9.39924C8.3714 7.53907 10.3316 5.66248 12.1575 6.57489L13.0515 4.78582ZM11.3332 16.9999H15.9998V14.9999H11.3332V16.9999ZM2.6665 14.3332H5.33317V12.3332H2.6665V14.3332ZM2.6665 19.6666H5.33317V17.6666H2.6665V19.6666Z" fill="#195EE6"/>
</svg>
