<svg width="32" height="32" viewBox="0 0 32 32" fill="none" xmlns="http://www.w3.org/2000/svg">
<path fill-rule="evenodd" clip-rule="evenodd" d="M17.2187 4.30251C16.443 3.95776 15.5576 3.95776 14.7819 4.30251L6.78408 7.8571C5.69183 8.34254 5.0033 9.41773 5.05015 10.5659C5.2337 15.0646 5.9385 18.0837 7.36824 20.5183C8.80023 22.9568 11.0238 24.9204 14.4758 27.1857C15.4001 27.7923 16.6034 27.7929 17.5255 27.1873C20.9883 24.913 23.1952 22.9282 24.6131 20.4843C26.0304 18.0414 26.7227 15.03 26.9322 10.5808C26.9866 9.42358 26.2963 8.337 25.1967 7.84829L17.2187 4.30251ZM13.9696 2.47489C15.2625 1.9003 16.7382 1.9003 18.031 2.47489L26.009 6.02067C27.8208 6.82592 29.0253 8.64966 28.9299 10.6749C28.7137 15.269 27.9909 18.6478 26.343 21.488C24.6958 24.3271 22.1872 26.5184 18.6235 28.859C17.0331 29.9035 14.9673 29.9004 13.3785 28.8578C9.83538 26.5327 7.30759 24.3646 5.64362 21.5311C3.9774 18.6937 3.24165 15.3004 3.05181 10.6474C2.96968 8.63427 4.17281 6.82903 5.9718 6.02948L6.37794 6.94329L5.9718 6.02947L13.9696 2.47489ZM20.6588 12.5808C21.0745 12.9444 21.1166 13.5762 20.7529 13.9918L16.7163 18.6051C16.0115 19.4105 14.7975 19.5184 13.9618 18.8498L11.3756 16.7809C10.9444 16.4359 10.8744 15.8066 11.2194 15.3753C11.5645 14.9441 12.1937 14.8741 12.625 15.2191L15.2112 17.2881L19.2477 12.6748C19.6114 12.2592 20.2432 12.2171 20.6588 12.5808Z" fill="#195EE6"/>
</svg>
