<svg width="32" height="32" viewBox="0 0 32 32" fill="none" xmlns="http://www.w3.org/2000/svg">
<path fill-rule="evenodd" clip-rule="evenodd" d="M16.0003 3.66675C9.18881 3.66675 3.66699 9.18857 3.66699 16.0001C3.66699 19.2284 4.90642 22.1664 6.93762 24.3655C8.69374 21.1686 12.0928 19.0001 16.0003 19.0001C19.9078 19.0001 23.3069 21.1686 25.063 24.3655C27.0942 22.1664 28.3337 19.2284 28.3337 16.0001C28.3337 9.18857 22.8118 3.66675 16.0003 3.66675ZM23.5339 25.766C22.1967 22.9472 19.3248 21.0001 16.0003 21.0001C12.6758 21.0001 9.80397 22.9472 8.46676 25.766C10.5507 27.3762 13.1627 28.3334 16.0003 28.3334C18.838 28.3334 21.4499 27.3762 23.5339 25.766ZM1.66699 16.0001C1.66699 8.084 8.08424 1.66675 16.0003 1.66675C23.9164 1.66675 30.3337 8.084 30.3337 16.0001C30.3337 20.3194 28.4218 24.1934 25.4016 26.8198C22.8856 29.0077 19.5965 30.3334 16.0003 30.3334C12.4041 30.3334 9.11508 29.0077 6.59902 26.8198C3.57882 24.1934 1.66699 20.3194 1.66699 16.0001ZM11 12C11 9.23858 13.2386 7 16 7C18.7614 7 21 9.23858 21 12C21 14.7614 18.7614 17 16 17C13.2386 17 11 14.7614 11 12ZM16 9C14.3431 9 13 10.3431 13 12C13 13.6569 14.3431 15 16 15C17.6569 15 19 13.6569 19 12C19 10.3431 17.6569 9 16 9Z" fill="#195EE6"/>
</svg>
